<svg width="149" height="18" viewBox="0 0 149 18" fill="none" xmlns="http://www.w3.org/2000/svg">
<path d="M48.4528 9.95945L54.8071 15.6811L53.4976 17.1371L48.4528 12.5947L43.4079 17.1371L42.0985 15.6811L48.4528 9.95945ZM48.9552 8.75232H40.9355V0.735006H48.9552V8.75465V8.75232ZM47.0758 2.73992H42.8148V6.74974H47.0758V2.73992ZM61.4335 0.981549V4.08195L56.8794 11.3689L58.5401 12.4063L62.4639 6.12873L66.3876 12.4063L68.0483 11.3689L63.4943 4.08195V0.981549H61.4335ZM52.4091 9.78501H54.3675V0.434967H52.4091V3.32371H49.9181V5.2821H52.4091V9.78501ZM71.6255 0.434967H69.6671V16.7208H71.6255V8.3639H74.4282V6.40551H71.6255V0.434967ZM11.6899 0.434967H0L9.72684 6.5218V17.1813H23.7682V13.2552H11.6899V0.434967ZM23.7659 6.52413L33.4927 0.434967H23.7659V6.52413Z" fill="#FF7710"/>
<path d="M96.5736 10.5037V12.262H89.5029V18H87.3003V12.262H80.2901V10.5037H96.5736ZM84.9581 0.727974V2.80964H91.8869V0.727974H94.0686V8.50572H82.7555V0.727974H84.9581ZM84.9581 6.70782H91.8869V4.56568H84.9581V6.70782Z" fill="#FF7710"/>
<path d="M97.6642 13.4133H113.945V15.2112H97.6642V13.4133ZM111.643 1.35362V3.15153H102.188V5.15179H111.643V6.91015H102.188V8.91041H111.643V10.7083H99.9459V1.35362H111.643Z" fill="#FF7710"/>
<path d="M119.865 6.24267H115.743V4.52617H120.632C120.732 4.02145 120.814 3.43533 120.814 2.78873H115.743V0.969893H122.814V2.78873C122.774 8.04057 119.239 9.75708 115.785 10.5665L115.32 8.6267C117.239 8.18245 118.895 7.59633 119.865 6.24267ZM118.713 11.2108H130.289V17.7767H118.713V11.2108ZM128.087 16.0184V12.9482H120.916V16.0184H128.087ZM124.228 0.344231H126.31V4.34475H128.168V0H130.289V10.4432H128.168V6.14033H126.31V10.3223H124.228V0.344231Z" fill="#FF7710"/>
<path d="M148.692 13.3738V15.2113H132.411V13.3738H148.692ZM146.692 1.43505V3.23296H144.47V8.82903H146.673V10.606H134.411V8.82903H136.593V3.23296H134.39V1.43505H146.692ZM142.268 8.82903V3.23296H138.835V8.82903H142.268Z" fill="#FF7710"/>
</svg>
